<?xml version="1.0" standalone="no"?>
<!DOCTYPE svg PUBLIC "-//W3C//DTD SVG 20010904//EN"
 "http://www.w3.org/TR/2001/REC-SVG-20010904/DTD/svg10.dtd">
<svg version="1.0" xmlns="http://www.w3.org/2000/svg"
 width="3016.000000pt" height="2960.000000pt" viewBox="0 0 3016.000000 2960.000000"
 preserveAspectRatio="xMidYMid meet">

<g transform="translate(0.000000,2960.000000) scale(0.100000,-0.100000)"
fill="#000000" stroke="none">
<path d="M10330 28609 c-295 -15 -539 -42 -753 -85 -132 -26 -227 -51 -227
-60 0 -4 156 -275 1137 -1974 214 -371 529 -916 699 -1210 1178 -2040 1181
-2045 1200 -2043 120 14 543 20 919 13 1053 -21 1461 -22 2120 -9 1179 23
1445 18 1710 -37 248 -51 448 -172 616 -372 154 -184 285 -397 644 -1047 458
-830 660 -1180 1115 -1935 370 -614 463 -776 556 -962 l69 -138 3017 0 c2922
0 3018 1 3018 18 0 28 -52 195 -100 324 -63 168 -187 437 -302 652 -209 396
-286 527 -1384 2346 -228 377 -421 700 -430 718 -9 17 -21 32 -26 32 -5 0 -7
4 -3 9 3 5 -2 16 -10 24 -8 9 -15 18 -15 22 0 14 -84 147 -96 152 -7 2 -10 11
-7 19 4 10 0 12 -11 8 -9 -3 -13 -11 -9 -18 3 -6 2 -7 -3 -3 -4 4 -10 22 -11
40 -4 51 -6 56 -17 54 -6 -1 -10 4 -8 12 2 8 -3 11 -13 8 -8 -4 -15 -2 -15 4
0 6 -4 7 -10 4 -5 -3 -10 -1 -10 5 0 7 7 10 15 6 9 -3 15 0 15 10 0 9 -7 14
-18 12 -11 -2 -18 1 -18 7 1 5 5 9 10 7 5 -2 6 4 2 13 -3 9 -6 19 -6 21 0 2
-7 4 -16 4 -10 0 -14 -6 -11 -15 4 -8 1 -17 -5 -21 -7 -4 -8 -3 -4 4 4 7 2 12
-5 12 -7 0 -9 3 -6 7 4 3 -1 15 -10 26 -10 11 -12 17 -5 13 11 -7 12 -4 3 13
-7 11 -17 21 -24 21 -7 0 -20 13 -29 28 -15 25 -15 31 -3 45 9 9 10 12 3 7
-17 -14 -28 -12 -28 5 0 8 -4 15 -8 15 -17 0 -31 47 -19 59 9 9 8 11 -4 6 -12
-5 -23 6 -41 37 -13 24 -85 149 -160 278 -277 481 -536 946 -1093 1960 -125
228 -245 444 -265 480 -21 36 -86 151 -146 255 -621 1095 -1005 1549 -1519
1797 -49 23 -91 46 -93 50 -2 4 -10 4 -18 1 -8 -3 -14 0 -14 7 0 6 -4 8 -10 5
-5 -3 -10 -1 -10 5 0 6 -4 9 -9 6 -14 -9 -42 5 -35 16 4 6 -2 8 -15 3 -12 -4
-21 -2 -21 4 0 6 -8 11 -19 11 -10 0 -24 7 -31 15 -7 8 -23 15 -35 15 -13 0
-26 6 -28 13 -4 9 -8 8 -16 -3 -9 -12 -11 -13 -11 -1 0 8 -3 12 -6 8 -11 -11
-65 15 -60 29 3 8 0 15 -7 15 -41 4 -69 10 -122 24 -33 10 -67 18 -75 19 -9 1
-21 5 -28 10 -6 4 -12 3 -12 -2 0 -6 -16 -4 -37 3 -21 7 -65 16 -98 19 -33 3
-76 8 -95 10 -383 48 -1021 55 -2420 27 -1930 -39 -2851 -38 -4800 4 -712 15
-1580 17 -1840 4z m9673 -196 c-7 -2 -19 -2 -25 0 -7 3 -2 5 12 5 14 0 19 -2
13 -5z m-142 -5651 c-7 -2 -18 1 -23 6 -8 8 -4 9 13 5 13 -4 18 -8 10 -11z
m129 7 c0 -5 4 -8 9 -4 5 3 13 1 16 -5 4 -6 3 -10 -2 -9 -4 1 -14 1 -22 0 -21
-2 -7 -11 25 -17 16 -3 31 -9 32 -15 2 -5 8 -6 14 -3 6 4 1 13 -13 21 -17 10
-18 12 -4 7 11 -3 25 -7 32 -7 6 0 8 -7 5 -15 -4 -12 -1 -14 12 -9 12 5 16 3
13 -5 -5 -15 -45 -13 -85 4 -15 6 -29 12 -32 13 -3 1 -12 4 -20 8 -8 3 -22 8
-30 10 -8 3 -2 6 14 6 21 1 27 5 22 16 -3 8 -1 15 4 15 6 0 10 -5 10 -11z
m150 -49 c0 -5 -5 -10 -11 -10 -5 0 -7 5 -4 10 3 6 8 10 11 10 2 0 4 -4 4 -10z
m63 -12 c-2 -5 5 -8 17 -8 12 0 19 -4 16 -8 -3 -5 11 -7 30 -6 23 2 32 -1 28
-7 -4 -7 1 -9 14 -5 11 4 23 2 27 -4 3 -5 17 -10 30 -10 14 0 66 -15 117 -34
51 -18 161 -57 243 -86 188 -67 605 -233 835 -334 202 -89 896 -432 920 -455
9 -9 23 -17 31 -19 8 -2 34 -15 58 -30 24 -15 56 -34 73 -42 16 -9 25 -20 21
-25 -4 -4 1 -5 12 -2 20 7 20 7 0 -8 -18 -14 -17 -15 14 -9 31 7 33 6 22 -13
-5 -11 -7 -23 -4 -27 8 -8 -10 -8 -31 0 -9 3 -13 11 -9 17 3 5 1 7 -5 3 -6 -3
-82 33 -169 80 -323 177 -834 422 -1193 572 -325 135 -931 362 -970 362 -6 0
-8 5 -4 12 4 7 3 8 -5 4 -14 -9 -83 13 -76 24 3 5 0 12 -6 16 -8 4 -9 3 -5 -5
12 -18 -42 -5 -67 16 -12 11 -17 12 -12 4 6 -11 4 -13 -9 -8 -10 4 -22 7 -27
7 -5 0 -9 5 -9 10 0 6 9 10 20 10 11 0 20 4 20 10 0 5 13 8 29 7 16 -1 27 -5
24 -9z m2549 -1116 c-7 -2 -10 -8 -6 -13 6 -11 2 -11 -20 -3 -13 5 -14 10 -6
20 7 7 19 10 28 7 10 -4 12 -8 4 -11z m-19 -36 c4 -10 1 -13 -9 -9 -15 6 -19
23 -5 23 5 0 11 -7 14 -14z m62 -28 c5 4 5 1 0 -7 -7 -12 -10 -11 -20 2 -7 9
-14 15 -17 12 -2 -3 -5 2 -5 12 0 13 3 12 17 -5 10 -12 21 -18 25 -14z m30 2
c10 -11 16 -20 13 -20 -3 0 -13 9 -23 20 -10 11 -16 20 -13 20 3 0 13 -9 23
-20z m35 -24 c0 -2 -8 -10 -17 -17 -16 -13 -17 -12 -4 4 13 16 21 21 21 13z"/>
<path d="M22606 21641 c-3 -5 2 -15 12 -22 15 -12 16 -12 5 2 -7 9 -10 19 -6
22 3 4 4 7 0 7 -3 0 -8 -4 -11 -9z"/>
<path d="M19880 28466 c0 -2 9 -6 20 -9 11 -3 18 -1 14 4 -5 9 -34 13 -34 5z"/>
<path d="M8493 27947 c-155 -167 -302 -355 -461 -594 -242 -361 -451 -724
-1047 -1808 -277 -505 -423 -767 -697 -1259 -49 -88 -90 -165 -91 -170 -1 -6
-4 -13 -7 -16 -8 -7 -61 -98 -80 -135 -8 -16 -20 -36 -26 -42 -7 -7 -20 -34
-30 -60 -9 -27 -24 -54 -33 -60 -12 -11 -13 -13 0 -13 10 -1 9 -3 -3 -11 -10
-5 -18 -17 -18 -25 0 -8 -4 -12 -10 -9 -13 8 -13 -8 0 -21 11 -11 -16 -58 -30
-49 -4 3 -10 -2 -14 -10 -3 -9 0 -15 10 -15 8 0 13 -4 9 -10 -3 -5 -12 -7 -19
-4 -14 5 -49 -39 -39 -50 3 -3 14 -1 25 5 16 9 17 13 6 27 -12 15 -11 16 5 3
16 -12 16 -16 2 -31 -8 -9 -12 -20 -8 -23 3 -4 1 -7 -6 -7 -7 0 -9 -5 -5 -12
4 -7 3 -8 -4 -4 -7 4 -12 2 -12 -3 0 -6 -5 -11 -10 -11 -7 0 -7 6 0 19 7 15 7
22 -2 27 -7 4 -10 4 -6 -1 4 -4 3 -16 -2 -26 -7 -12 -6 -22 5 -32 13 -13 13
-16 -1 -21 -8 -3 -12 -2 -9 4 3 6 1 10 -4 10 -6 0 -11 -5 -11 -11 0 -5 -4 -7
-10 -4 -6 4 -7 -1 -3 -11 5 -13 3 -15 -7 -9 -9 5 -11 4 -6 -3 5 -9 13 -9 29 0
21 11 21 10 7 -8 -8 -10 -22 -25 -30 -32 -11 -10 -11 -11 -1 -6 9 4 5 -8 -9
-34 -13 -23 -28 -42 -32 -42 -5 0 -7 -4 -4 -8 3 -5 -5 -20 -17 -33 -12 -13
-20 -24 -18 -24 2 0 1 -10 -3 -23 -5 -13 -12 -20 -19 -16 -7 4 -9 4 -5 -1 8
-9 -2 -28 -175 -325 -207 -355 -414 -702 -651 -1095 -935 -1549 -1054 -1752
-1253 -2141 -249 -488 -365 -816 -408 -1154 -14 -109 -16 -168 -10 -305 4 -93
8 -189 9 -212 0 -22 5 -39 10 -36 5 4 6 -5 2 -20 -3 -15 -1 -29 5 -33 6 -4 9
-19 5 -36 -3 -16 -2 -27 3 -24 11 7 36 -152 29 -188 -4 -21 -3 -24 8 -15 11 9
14 8 14 -5 0 -9 -4 -16 -10 -16 -14 0 -13 -37 2 -46 7 -5 8 -3 3 6 -5 8 -4 11
3 6 6 -4 9 -13 6 -21 -3 -7 0 -23 6 -35 8 -14 8 -20 1 -16 -7 5 -7 -2 0 -24 6
-16 15 -27 20 -24 6 3 7 -5 4 -19 -4 -16 -2 -28 7 -34 7 -4 13 -12 13 -18 1
-24 29 -95 37 -95 5 0 6 -5 3 -11 -9 -13 14 -69 28 -69 6 0 7 -3 4 -6 -3 -4
-1 -16 5 -28 12 -21 14 -27 17 -47 0 -5 6 -7 13 -3 7 4 8 3 4 -4 -11 -18 161
-360 339 -677 97 -172 331 -570 549 -930 1289 -2138 1595 -2667 2585 -4464
775 -1407 969 -1730 1274 -2131 78 -101 250 -301 299 -347 l24 -23 50 88 c28
48 161 278 296 512 445 770 872 1509 1536 2660 360 624 763 1322 895 1550 132
228 240 420 240 425 0 6 -36 64 -80 130 -110 165 -209 337 -519 898 -439 794
-629 1123 -1057 1832 -474 785 -569 956 -653 1170 -114 294 -130 494 -58 743
70 242 181 455 592 1137 506 840 718 1206 1048 1803 469 849 553 994 672 1167
30 44 55 85 55 90 0 6 -303 534 -673 1175 -370 641 -1035 1793 -1478 2560
-910 1578 -854 1482 -868 1487 -6 2 -38 -25 -71 -60z m-604 -4942 c42 -718
141 -1457 278 -2085 20 -91 37 -174 38 -185 2 -11 5 -27 8 -35 14 -40 15 -48
4 -59 -6 -6 -16 -11 -21 -11 -6 0 -5 5 2 12 7 7 12 21 12 32 0 17 -2 18 -10 6
-6 -10 -8 0 -5 30 3 30 1 40 -5 30 -5 -8 -10 -24 -11 -35 -1 -16 -2 -17 -6 -3
-2 9 1 27 7 38 10 18 9 22 -7 26 -10 3 -26 22 -36 42 l-19 37 29 -28 c20 -19
30 -23 30 -13 0 8 -4 13 -8 11 -11 -7 -41 44 -33 57 4 6 3 8 -3 5 -14 -9 -24
18 -16 40 5 12 3 14 -7 8 -10 -6 -12 -4 -7 10 4 9 3 23 -1 29 -5 6 -10 18 -10
26 -1 8 -17 92 -37 185 -91 440 -171 1027 -209 1545 -24 322 -39 768 -27 820
5 24 7 58 5 74 -4 24 -3 28 5 16 10 -13 11 -13 12 0 0 8 5 4 9 -10 6 -18 9 0
11 60 1 47 6 -43 10 -200 4 -157 12 -370 18 -475z m345 -2391 c3 -8 2 -12 -4
-9 -6 3 -10 10 -10 16 0 14 7 11 14 -7z m-20 -10 c3 -8 2 -12 -4 -9 -6 3 -10
10 -10 16 0 14 7 11 14 -7z"/>
<path d="M5966 23705 c-11 -8 -15 -15 -9 -15 6 0 16 7 23 15 16 19 11 19 -14
0z"/>
<path d="M23563 23425 c0 -8 4 -12 9 -9 5 3 6 10 3 15 -9 13 -12 11 -12 -6z"/>
<path d="M23581 23363 c-1 -17 16 -25 25 -12 4 7 3 9 -4 5 -5 -3 -13 0 -15 6
-4 9 -6 10 -6 1z"/>
<path d="M3251 17882 c-13 -25 -14 -32 -2 -32 9 0 23 41 16 48 -2 2 -8 -5 -14
-16z"/>
<path d="M20076 17733 c-91 -186 -183 -344 -596 -1033 -435 -725 -641 -1082
-997 -1729 -413 -750 -502 -901 -649 -1098 -238 -318 -448 -442 -839 -500
-103 -15 -193 -17 -625 -16 -943 1 -2878 1 -3362 0 -266 -1 -519 0 -563 3
l-79 5 -344 -595 c-189 -327 -481 -833 -649 -1125 -469 -812 -1078 -1868
-1575 -2728 -247 -428 -447 -781 -445 -784 10 -9 153 -42 292 -67 161 -29 338
-50 580 -68 246 -18 1330 -16 2280 5 770 17 1855 38 1925 37 19 0 50 2 68 6
29 4 32 7 20 21 -12 14 -7 15 47 11 33 -3 89 -1 125 4 77 10 1544 -5 2505 -27
1993 -45 2552 2 3115 262 47 22 89 40 94 40 5 1 12 6 15 11 9 14 94 65 108 65
7 0 10 3 8 7 -7 11 42 33 56 25 8 -5 10 -4 5 3 -8 13 41 61 62 62 6 0 12 4 12
8 0 5 15 19 33 32 l32 23 -20 -24 c-11 -14 -6 -10 11 8 17 18 36 33 43 33 6 0
10 4 9 10 -4 12 63 70 80 70 7 0 12 6 10 13 -2 7 0 12 4 12 3 0 16 12 28 28
12 15 26 27 32 27 6 0 1 -9 -12 -20 -13 -11 -18 -20 -11 -20 21 0 43 29 36 48
-5 13 -3 14 5 6 15 -15 54 21 43 39 -4 7 1 6 13 -3 10 -8 16 -11 12 -6 -4 4 4
18 17 31 14 12 21 26 17 30 -4 5 1 5 12 1 18 -6 18 -5 1 21 -10 16 -14 25 -10
21 4 -4 16 -3 27 3 11 6 22 8 25 5 3 -3 -5 -10 -18 -15 -17 -7 -19 -10 -7 -10
10 -1 30 17 45 41 16 24 37 51 48 60 11 10 17 17 13 18 -4 0 3 10 15 23 12 13
29 32 37 43 51 66 70 94 65 94 -4 0 9 19 27 43 174 218 467 722 1293 2222 482
875 933 1668 1370 2410 213 360 386 650 1020 1700 367 609 546 916 706 1210
213 394 364 743 438 1013 l20 72 -3022 0 -3022 0 -59 -117z m-4051 -6102 c3
-5 2 -12 -3 -15 -5 -3 -9 1 -9 9 0 17 3 19 12 6z m-29 -30 c0 -11 -5 -17 -13
-14 -10 4 -11 9 -2 19 15 18 15 18 15 -5z m-44 -44 c-7 -8 -8 -18 -4 -22 4 -5
1 -4 -7 0 -11 6 -13 4 -8 -8 3 -9 3 -16 -1 -16 -20 3 -33 -2 -27 -11 3 -5 1
-10 -4 -10 -6 0 -11 -4 -11 -10 0 -5 8 -7 18 -4 13 5 14 4 3 -4 -7 -5 -22 -7
-32 -5 -21 6 -27 -13 -6 -20 7 -2 6 -3 -3 -3 -8 1 -15 11 -16 23 -1 15 3 20
15 16 9 -4 13 -3 9 2 -7 8 73 97 81 90 2 -3 -1 -11 -7 -18z m-117 -108 c-5
-14 -3 -19 3 -15 6 3 14 2 17 -4 4 -6 3 -10 -2 -9 -18 3 -27 -2 -17 -9 9 -5 8
-11 -2 -20 -12 -11 -14 -10 -10 12 3 18 1 23 -10 19 -8 -3 -11 -10 -7 -17 3
-6 3 -8 -1 -4 -5 4 -18 -5 -31 -20 -13 -15 -27 -24 -31 -19 -6 6 82 107 94
107 2 0 0 -10 -3 -21z m-38 -92 c-8 -12 -21 -22 -28 -23 -30 -2 -33 -5 -19
-15 12 -9 11 -10 -8 -6 -12 3 -20 2 -17 -2 7 -13 -26 -52 -38 -45 -7 4 -9 4
-5 -1 11 -12 -33 -47 -51 -40 -12 5 -13 3 -4 -6 9 -9 9 -15 -2 -25 -7 -8 -16
-14 -18 -14 -3 0 -20 -15 -39 -32 -18 -18 -57 -53 -87 -78 -29 -25 -61 -52
-70 -61 -128 -122 -648 -524 -958 -742 -222 -157 -670 -447 -689 -447 -4 0
-16 -8 -27 -17 -15 -13 -18 -14 -12 -3 5 8 -4 3 -19 -12 -16 -15 -32 -25 -37
-22 -5 3 -9 -1 -9 -8 0 -10 -2 -10 -9 1 -7 11 -10 9 -16 -8 -4 -13 -9 -20 -12
-17 -4 3 -13 0 -21 -7 -10 -8 -13 -8 -9 -1 9 15 -23 28 -37 14 -7 -7 -6 -14 3
-22 10 -11 11 -10 6 5 -4 9 -3 17 3 17 6 0 9 -8 7 -17 -1 -11 -9 -17 -19 -15
-9 2 -16 -1 -15 -5 3 -19 -2 -23 -20 -13 -26 13 -17 44 17 60 15 6 29 11 31
10 2 -1 7 3 10 8 3 5 31 24 61 42 530 318 1224 815 1695 1214 115 97 370 321
376 329 4 5 15 6 26 3 13 -4 26 1 38 14 23 25 41 15 22 -13z m-2300 -1656 c1
-15 -4 -19 -20 -15 -11 2 -24 -2 -28 -8 -5 -7 -11 -9 -16 -5 -10 10 18 28 35
22 6 -2 12 2 12 10 0 22 16 18 17 -4z m-88 -47 c4 3 8 -1 8 -9 0 -11 -4 -12
-14 -4 -7 6 -13 17 -12 23 0 7 2 6 6 -2 2 -6 8 -10 12 -8z m-44 -42 c-6 -7
-34 11 -29 19 3 5 11 3 19 -4 7 -6 12 -13 10 -15z"/>
<path d="M15645 11249 c-4 -6 -5 -12 -2 -15 2 -3 7 2 10 11 7 17 1 20 -8 4z"/>
<path d="M13510 9706 c0 -2 7 -7 16 -10 8 -3 12 -2 9 4 -6 10 -25 14 -25 6z"/>
<path d="M3279 17808 c0 -7 -2 -25 -3 -40 -1 -16 2 -28 6 -28 4 0 8 18 8 40 0
22 -2 40 -5 40 -3 0 -5 -6 -6 -12z"/>
<path d="M3291 17684 c0 -11 3 -14 6 -6 3 7 2 16 -1 19 -3 4 -6 -2 -5 -13z"/>
<path d="M20889 8704 c-7 -9 -22 -20 -34 -25 -17 -7 -16 -8 7 -6 15 1 25 3 23
6 -3 2 3 10 13 17 9 7 14 15 11 18 -3 4 -12 -1 -20 -10z"/>
<path d="M20828 8653 c7 -3 16 -2 19 1 4 3 -2 6 -13 5 -11 0 -14 -3 -6 -6z"/>
<path d="M20786 8631 c-3 -5 3 -11 15 -14 16 -4 18 -3 8 9 -13 16 -16 17 -23
5z"/>
<path d="M14598 8053 c6 -2 18 -2 25 0 6 3 1 5 -13 5 -14 0 -19 -2 -12 -5z"/>
<path d="M4655 4945 c-518 -67 -919 -345 -1140 -790 -121 -242 -173 -454 -182
-735 -19 -587 223 -1097 652 -1372 341 -220 826 -299 1276 -208 201 41 403
127 561 240 679 484 821 1597 292 2305 -210 281 -536 478 -904 545 -151 28
-405 35 -555 15z m426 -520 c383 -67 651 -323 754 -723 93 -357 21 -771 -181
-1033 -174 -226 -433 -341 -769 -341 -307 0 -532 87 -711 274 -144 150 -233
343 -268 580 -60 405 60 792 320 1026 117 106 285 186 453 217 102 18 299 18
402 0z"/>
<path d="M20630 4934 c-216 -28 -390 -77 -540 -155 -168 -87 -274 -190 -345
-334 -47 -95 -66 -171 -72 -295 -14 -283 103 -477 369 -611 167 -84 325 -129
753 -214 333 -67 401 -83 546 -134 268 -95 409 -235 439 -437 13 -84 0 -208
-30 -286 -82 -216 -314 -362 -655 -413 -145 -22 -390 -20 -513 4 -331 64 -608
232 -754 455 -21 33 -40 61 -42 63 -2 3 -49 -19 -105 -47 -114 -57 -111 -46
-48 -140 194 -290 496 -470 907 -541 132 -23 390 -27 537 -9 340 42 581 145
745 318 81 86 128 169 164 287 36 120 38 317 6 437 -56 205 -176 341 -397 447
-174 85 -311 122 -765 211 -362 71 -519 113 -647 175 -220 107 -313 276 -271
492 22 114 61 186 143 268 161 162 433 249 775 248 246 0 415 -30 557 -98 152
-71 217 -128 349 -304 5 -5 184 102 184 110 0 15 -95 134 -153 192 -155 155
-340 249 -577 292 -92 17 -475 29 -560 19z"/>
<path d="M1020 3385 l0 -1515 1065 0 1065 0 0 265 0 265 -780 0 -780 0 0 1250
0 1250 -285 0 -285 0 0 -1515z"/>
<path d="M6860 3385 l0 -1515 285 0 285 0 0 505 0 505 278 0 278 0 439 -505
440 -505 338 0 338 0 -3 25 c-2 15 -165 207 -453 531 -247 278 -451 510 -453
514 -1 3 23 12 55 20 91 20 228 78 311 132 190 125 317 316 369 558 25 120 25
365 -1 475 -85 366 -358 642 -724 734 -156 39 -202 41 -1001 41 l-781 0 0
-1515z m1595 970 c228 -60 365 -236 365 -470 0 -237 -150 -426 -378 -474 -35
-7 -216 -11 -532 -11 l-480 0 0 485 0 485 483 0 c403 0 493 -3 542 -15z"/>
<path d="M9770 3385 l0 -1515 1130 0 1130 0 0 280 0 280 -847 2 -848 3 0 340
0 340 818 3 817 2 0 265 0 265 -820 0 -820 0 0 350 0 350 850 0 850 0 0 275 0
275 -1130 0 -1130 0 0 -1515z"/>
<path d="M16050 3385 l0 -1515 115 0 115 0 0 1515 0 1515 -115 0 -115 0 0
-1515z"/>
<path d="M16950 3385 l0 -1515 115 0 115 0 0 524 0 525 638 3 637 4 95 26
c123 33 194 66 295 133 391 260 529 848 304 1299 -138 277 -369 447 -678 501
-68 12 -215 15 -802 15 l-719 0 0 -1515z m1444 1295 c246 -36 441 -177 546
-395 59 -122 79 -199 87 -330 22 -380 -197 -703 -542 -802 -53 -15 -130 -18
-682 -21 l-623 -3 0 781 0 780 573 0 c324 0 602 -5 641 -10z"/>
<path d="M22513 3873 c4 -1133 2 -1089 68 -1288 163 -488 651 -793 1194 -745
504 44 891 364 1010 834 43 170 45 225 45 1249 l0 977 -115 0 -115 0 0 -994
c0 -845 -2 -1007 -15 -1082 -39 -225 -121 -382 -277 -529 -173 -163 -385 -245
-637 -245 -271 0 -472 81 -656 265 -107 107 -156 181 -204 305 -68 175 -65
118 -68 1253 l-4 1027 -115 0 -115 0 4 -1027z"/>
<path d="M25470 3385 l0 -1515 115 0 115 0 2 1347 3 1348 584 -888 583 -887
38 0 38 0 378 578 c207 317 467 716 578 886 l201 308 3 -1346 2 -1346 115 0
115 0 0 1515 0 1516 -146 -3 -146 -3 -565 -870 c-310 -478 -568 -874 -572
-878 -4 -4 -268 389 -585 873 l-578 880 -139 0 -139 0 0 -1515z"/>
<path d="M12480 3380 l0 -1510 285 0 285 0 2 1098 3 1097 365 -499 c201 -274
418 -570 483 -658 l117 -159 54 3 54 3 477 635 c263 349 486 644 496 654 17
19 18 -13 18 -1070 1 -599 1 -1092 1 -1096 0 -5 126 -8 280 -8 l280 0 0 1510
0 1510 -327 -2 -327 -3 -132 -180 c-72 -99 -282 -387 -466 -640 -184 -253
-339 -460 -344 -459 -5 0 -218 288 -474 640 l-466 639 -332 3 -332 2 0 -1510z"/>
</g>
</svg>
